<?xml version="1.0" encoding="UTF-8"?>
<svg id="Layer_2" data-name="Layer 2" xmlns="http://www.w3.org/2000/svg" viewBox="0 0 375.7 375.89">
  <g id="Layer_1-2" data-name="Layer 1">
    <g>
      <path d="M248.95,352.34c18.82-1.43,32.78-16.25,32.82-34.94l.08-71.3c0-6.78,6.07-11.39,12.12-11.11,6.45.3,11.32,5.31,11.3,12.1l-.11,70.81c-.05,32.19-26.81,58-58.95,57.99l-187.65-.04c-31.53,0-58.48-25.7-58.49-57.48L0,128.8c-.01-32.69,27.23-58.4,59.53-58.37l69.34.07c6.62,0,11.55,4.85,11.9,11.12.31,5.59-3.8,12.15-10.37,12.16l-71.4.15c-17.82.04-35.35,14.53-35.37,33.27l-.18,190.73c-.02,18.45,15.59,34.3,34.07,34.31l191.42.1Z"/>
      <path d="M238.08,154.12l-33.21,33.01-45.22,45.08c-4.1,4.09-10.26,3.58-14.29-.13-4.68-4.31-5.96-11.82-1.03-16.76l65.47-65.7,31.9-32.1,32.93-33.07,60.88-60.96h-112.09c-7.1,0-12.26-5.31-12.05-11.94S216.74,0,223.94,0l140.7.09c6.06,0,11.04,5.28,11.04,11.22l.02,141.24c0,6.93-5.31,11.87-11.73,11.86s-11.72-4.9-11.73-11.86l-.03-112.07-16.5,16.31-64.94,64.8-32.69,32.54Z"/>
    </g>
  </g>
</svg>
