<svg width="1583" height="162" fill="none" xmlns="http://www.w3.org/2000/svg"><mask id="a" style="mask-type:alpha" maskUnits="userSpaceOnUse" x="0" y="0" width="1583" height="162"><path fill="#000" d="M0 0H1582.41V162H0z"/></mask><g mask="url(#a)"><path d="M546.686 4.828v48.755H523.05c-4.388-6.712-18.666-34.72-57.531-34.72-20.052 0-26.835 10.593-26.835 19.746 0 8.01 6.611 15.577 59.36 23.172 49.308 7.097 56.836 37.663 56.836 52.184 0 16.045-8.261 48.161-65.888 48.035-33.623-.071-61.215-13.449-61.215-13.449l-5.004 8.826h-24.189v-51.2h25.177c3.228 10.51 20.823 34.381 60.386 34.381 27.367 0 32.078-12.985 32.078-19.123 0-14.018-3.429-18.888-54.051-26.881-40.26-6.356-59.545-23.842-59.545-48.952C402.629 25.482 418.891 0 467.072 0c34.431 0 51.493 13.834 51.493 13.579 0-.247 4.485-8.751 4.485-8.751h23.636zM340.047 81.029c-.083 31.391-16.978 62.464-44.684 62.464-27.707 0-44.593-31.073-44.677-62.464.084-31.386 16.979-62.568 44.681-62.568 27.702 0 44.597 31.182 44.68 62.568zM295.371 0c-60.286 0-87.816 43.927-87.816 81.31 0 37.387 27.534 80.652 87.816 80.652 60.286 0 87.812-43.265 87.812-80.652 0-37.383-27.526-81.31-87.812-81.31zm-110.59 139.498c-5.619 0-10.656-4.283-10.656-9.957V31.236c0-5.155 3.27-8.7 8.106-8.7h16.158V4.74h-87.623v17.85h19.085c5.455 0 7.997 4.057 7.997 8.395v39.317h-73.58V30.985c0-4.338 2.537-8.395 7.993-8.395h19.09V4.74H3.721v17.795H19.88c4.832 0 8.11 3.546 8.11 8.7v98.306c0 5.674-5.04 9.957-10.66 9.957H0v17.783h94.461v-17.749h-19.83c-5.854 0-10.263-4.547-10.263-10.116v-39.82h73.375v39.82c0 5.569-4.409 10.116-10.258 10.116h-19.843v17.749h94.47v-17.783h-17.331zm569.781 0c-5.619 0-10.656-4.283-10.656-9.957V31.236c0-5.155 3.274-8.7 8.106-8.7h16.158V4.74h-87.627v17.85h19.089c5.455 0 7.993 4.057 7.993 8.395v39.317h-73.576V30.985c0-4.338 2.537-8.395 7.993-8.395h19.089V4.74h-87.627v17.795h16.158c4.835 0 8.114 3.546 8.114 8.7v98.306c0 5.674-5.045 9.957-10.664 9.957h-17.331v17.783h94.457v-17.749h-19.83c-5.85 0-10.259-4.547-10.259-10.116v-39.82h73.375v39.82c0 5.569-4.409 10.116-10.262 10.116h-19.843v17.749h94.474v-17.783h-17.331zm605.258-117h-8.87c-4.6 0-9.26 3.01-9.26 10.07v51.166l55.43-52.649c4.39-4.145 4.67-8.642-3.14-8.642h-13.29V4.79h83.36v17.653h-14.32c-9.07 0-15.39 3.932-18.18 6.762-1.81 1.83-39.55 38.334-39.55 38.334l58.92 64.812c3.58 3.827 9.3 7.16 15.17 7.16h10.23v18.072h-96.16v-18.084h15.85c3.94 0 5.03-4.271 3.43-6.239l-34.77-40.85-22.98 20.705v14.944c0 6.649 5.24 11.423 12.18 11.423h9.71v17.833h-85.77v-17.833h18.21c6.17 0 10.34-4.908 10.34-10.133v-97.15c0-6.272-3.64-9.701-9.19-9.701h-17.2V4.715h79.85v17.783zM866.019 139.49c-6.264 0-7.566-3.819-7.566-10.384v-98.7c0-4.689 2.605-7.959 6.888-7.959h19.068V4.761h-89.621v17.686h19.073c4.283 0 6.883 3.27 6.883 7.96v98.699c0 6.565-1.302 10.384-7.562 10.384h-19.545v17.875h91.927V139.49h-19.545zm696.851 0c-6.26 0-7.57-3.819-7.57-10.384v-98.7c0-4.689 2.61-7.959 6.89-7.959h19.07V4.761h-89.62v17.686h19.07c4.28 0 6.89 3.27 6.89 7.96v98.699c0 6.565-1.31 10.384-7.56 10.384h-19.56v17.875h91.93V139.49h-19.54zm-522.02-45.17v22.363c0 10.74-9.85 21.162-19.65 21.162h-65.477l101.747-109.82V4.745H909.297v62.961h21.581l.05-23.352c0-9.835 8.709-20.592 20.73-20.592h58.192L907.312 134.064v23.318h155.118V94.319h-21.58zm215.85 45.162c-6.17 0-9.39-9.028-11.03-12.972L1191.18 4.744h-39.75l-53.16 121.506c-1.62 3.853-4.97 13.257-11.17 13.257h-10.5v17.854h74.77v-17.85h-21.9c-4.96-.105-9.56-3.81-4.96-14.877l7.5-18.138h63.13l9.97 22.158c1.05 2.922.1 10.857-6.73 10.857h-22.79v17.804h88.05v-17.833h-6.94zm-116.74-52.28l21.55-52.683 24.47 52.682h-46.02z" fill="#000"/></g></svg>