<svg width="494" height="62" viewBox="0 0 494 62" fill="none" xmlns="http://www.w3.org/2000/svg">
<path d="M475.988 61.8024C473.58 61.739 471.298 61.4221 470.981 59.4571C470.664 57.6189 472.439 56.6681 473.58 56.7314C477.066 56.9216 483.595 56.985 487.525 56.5413C488.412 52.1676 488.222 31.3766 488.222 20.0936C488.222 18.6357 488.792 17.2412 490.948 17.2412C491.138 17.2412 491.328 17.2412 491.518 17.2412C492.786 17.368 493.863 18.3822 493.8 19.9035C493.42 29.0312 493.546 53.879 493.356 56.4145C493.23 58.3795 492.532 59.8374 491.201 60.7248C489.616 61.739 482.39 61.9926 475.988 61.8024Z" fill="#00A0E9"/>
<path d="M431.11 44.8148C429.588 44.6246 428.891 43.3568 428.764 42.0891C428.574 40.3776 428.891 38.2225 429.462 35.4334C431.87 24.0871 435.737 13.8818 439.857 4.69065C440.237 3.80323 441.252 1.90162 442.012 1.07758C442.709 0.316936 443.47 0 444.231 0C447.337 0 450.379 5.07098 446.132 6.71904C437.765 21.2981 434.659 37.3984 434.723 40.6312C434.786 43.4836 434.216 45.1951 431.11 44.8148ZM435.864 61.7391C432.377 63.0069 430.729 58.5064 429.652 55.654C428.954 53.7523 428.638 50.6464 431.49 49.759C432.694 49.3786 434.342 49.6956 435.166 51.1535C435.61 52.0409 435.293 53.2452 435.483 53.9425C435.8 55.337 436.434 56.478 437.322 57.5556C438.209 59.0769 437.575 61.1053 435.864 61.7391Z" fill="#00A0E9"/>
<path d="M354.729 38.9194C355.743 32.5173 357.835 23.7698 360.37 16.8606C357.898 17.1775 355.806 17.2409 354.792 17.0508C351.56 16.6071 352.447 11.0924 356.123 12.2333C358.405 12.2967 360.434 12.0432 362.399 11.7896C362.906 10.8388 363.35 9.95141 363.857 9.25415C364.934 7.41592 366.139 6.71866 367.216 6.65527H367.406C369.245 6.65527 370.893 8.4935 370.702 9.82463C374.316 7.9864 377.105 12.1066 374.442 13.5645C372.667 14.4519 369.815 15.3393 366.772 15.8464C364.491 21.4245 362.526 28.1435 361.068 34.3555C359.103 42.9128 358.722 49.9487 360.18 52.1039C361.258 53.1815 361.765 54.1323 361.004 55.5902C360.434 56.7312 359.166 56.9847 357.708 56.3508C355.553 55.4 354.856 53.9421 354.349 51.4066C353.778 48.3641 354.158 42.786 354.729 38.9194ZM375.393 33.4681C373.428 32.2637 373.745 29.855 375.71 28.6506C379.577 26.3687 385.155 25.5447 389.275 26.1785C390.733 26.3687 392.761 27.3195 393.712 28.4605C394.916 29.9818 394.536 32.2003 392.191 32.644C390.796 32.961 389.909 31.82 388.578 31.5031C385.915 30.996 380.718 31.6932 379.64 33.1511C378.943 34.3555 376.661 34.2287 375.393 33.4681ZM378.753 52.1673C375.583 51.47 371.146 49.0613 374.569 46.399C376.027 45.2581 377.675 46.4624 378.943 46.8428C381.668 47.54 388.134 47.9837 392.444 46.4624C394.473 45.8919 397.008 47.3499 396.628 49.3782C396.501 50.4558 395.867 51.3432 394.916 51.5334C389.972 52.5476 383.507 53.1815 378.753 52.1673Z" fill="#00A0E9"/>
<path d="M309.533 44.6241C308.392 44.7509 307.315 44.5608 306.364 44.3072C304.272 46.2722 301.8 47.9837 299.011 49.3148C292.863 52.4842 287.538 47.6033 288.045 41.5182C288.426 36.8275 290.834 31.2494 295.525 26.9391C294.447 22.8189 293.75 18.572 294.257 14.4518C294.764 10.2049 303.322 13.3743 300.152 16.4168C299.835 17.6212 300.025 20.1567 300.532 23.1359C304.589 20.7272 309.724 19.0791 315.872 18.8256C317.14 16.2267 317.901 13.6278 319.105 11.2825C319.485 10.3951 320.309 10.0781 321.133 10.0781C323.352 10.0781 326.204 12.677 323.986 14.5786C323.479 16.1633 322.718 17.8114 321.767 19.713C325.507 21.1075 328.676 23.5796 330.641 26.6222C334.191 32.2003 333.621 40.504 328.993 47.4132C327.155 50.2022 323.859 53.8787 321.704 55.6535C320.056 56.8579 318.725 57.1748 317.14 55.9071C315.936 54.7661 315.872 53.3082 316.95 52.294C318.978 50.3924 320.563 48.8711 322.211 47.0962C324.366 44.7509 327.852 39.6166 327.662 34.9259C327.409 29.2211 324.62 25.291 320.183 23.643C317.584 29.4112 314.604 35.1161 310.674 39.8067C313.4 40.5674 313.971 44.3706 309.533 44.6241ZM293.94 45.6383C296.412 45.3848 299.265 43.5466 301.927 41.2646C300.089 39.2362 298.251 35.3696 297.363 32.7074C296.793 33.4046 296.095 34.2286 295.525 35.1161C293.496 38.222 292.736 42.5324 293.94 45.6383ZM314.287 23.5162C310.041 24.0867 305.477 26.0517 301.673 28.7773C302.688 32.327 303.955 35.8767 305.287 37.7783C308.9 33.7215 312.132 28.4604 314.287 23.5162Z" fill="#00A0E9"/>
<path d="M229.728 32.0101C228.017 30.8691 226.178 30.2353 223.96 30.6156C222.882 32.7708 218.952 31.1227 218.889 28.9675C218.889 27.0025 220.664 26.1151 223.009 26.0517C225.988 25.9883 229.348 26.8124 230.806 27.5096C234.419 29.2845 232.264 33.7216 229.728 32.0101ZM234.102 23.1359C232.01 23.2627 231.503 21.9315 231.313 20.854C230.996 19.0791 230.045 16.607 224.784 16.8606C224.213 18.4453 221.107 18.0015 220.22 16.6704C219.713 15.9732 219.649 15.0223 220.157 14.0715C220.917 12.6136 222.755 12.2333 224.213 12.1699C227.826 12.1065 233.721 14.0081 235.686 18.1283C236.447 19.713 236.384 22.9457 234.102 23.1359ZM220.283 51.9137C218.699 51.7869 217.177 50.329 217.621 48.7443C217.875 47.7935 218.952 46.9695 219.966 46.5892C223.389 44.0537 229.855 38.539 231.566 37.0177C232.644 35.9401 233.341 35.3696 234.545 35.3696C235.813 35.3696 238.222 37.6516 236.447 39.1729C233.721 41.5816 226.812 47.9203 223.96 50.1389C222.755 51.0263 221.678 51.8503 220.283 51.9137ZM239.68 37.3346C238.032 36.1303 239.173 33.2779 241.962 32.5172C244.307 31.82 247.033 31.3129 250.012 30.9325C251.406 27.3828 252.484 23.8966 253.181 20.6004C253.625 18.6354 254.005 16.607 254.322 14.642C251.343 14.8322 248.11 15.5928 245.511 17.3677C245.702 22.1851 234.862 16.8606 243.8 12.4235C246.462 11.0923 250.646 10.2049 254.956 10.0148C255.21 8.04975 255.336 6.08475 255.4 4.18313C255.4 2.97877 256.351 2.47168 257.365 2.47168C258.759 2.47168 260.407 3.42249 260.471 4.75362C260.471 6.52846 260.407 8.36669 260.281 10.1415C264.274 10.6486 267.887 11.853 269.725 14.1983C273.782 19.3961 270.803 25.6714 267.634 29.7282H272.958C274.416 29.7282 275.684 30.9959 275.937 32.7708C276.318 34.7358 273.529 34.7358 272.007 34.6724C267.951 34.4188 262.626 34.5456 257.618 34.9259C258.759 39.8067 261.231 44.4974 264.464 48.1738C266.873 50.8361 270.613 53.4984 273.085 54.8295C276.001 56.541 273.655 60.3442 270.74 58.7595C265.605 55.8437 260.661 51.8503 257.555 47.2864C254.956 43.5466 253.562 40.3772 252.864 37.398C251.66 39.9969 250.329 42.5324 248.808 45.1313C246.462 49.4416 244.434 52.9913 241.138 57.4918C240.314 58.6961 238.983 58.8863 237.398 57.9989C236.13 57.2382 235.686 55.7803 236.574 54.576C240.948 48.7443 244.814 42.469 247.73 36.1937C246.272 36.5106 245.068 36.8275 244.244 37.2079C243.23 38.4756 241.265 38.4756 239.68 37.3346ZM265.605 21.678C267.253 16.7972 265.415 14.8956 259.71 14.5786C258.95 19.2059 257.745 23.7698 256.414 28.2069C256.224 28.9041 255.97 29.6014 255.78 30.2987L258.633 30.1085C261.929 27.3828 264.654 24.3403 265.605 21.678Z" fill="#00A0E9"/>
<path d="M167.798 53.8156C162.918 52.2943 161.84 47.3501 161.46 42.2157C160.889 34.9896 162.537 20.7274 166.341 12.6139C167.165 10.9024 168.496 10.2686 169.637 10.2686C172.616 10.2686 175.468 14.2619 171.348 15.8466C167.608 24.5941 165.073 40.6944 167.989 47.0965C168.623 48.3643 170.271 48.3009 171.095 49.3785C172.426 51.1533 170.714 54.703 167.798 53.8156ZM184.786 27.8902C182.758 27.3831 181.046 25.2913 182.821 23.0728C185.991 19.2062 196.069 18.3821 201.013 19.9668C202.852 20.4739 204.5 21.9318 204.056 23.7066C203.422 25.9886 200.887 25.1645 198.795 24.7842C195.499 24.2771 191.505 24.5307 188.906 25.9252C188.589 27.4465 186.688 28.2071 184.786 27.8902ZM186.054 48.1107C183.011 47.9206 180.413 43.9905 184.089 42.7862C185.04 42.5326 185.991 42.7228 187.195 42.8496C191.632 43.0397 197.464 42.7228 202.281 41.772C204.31 41.2015 207.606 43.1665 206.401 45.4485C206.021 46.2725 204.626 46.9064 202.598 47.2233C196.83 48.1107 189.667 48.491 186.054 48.1107Z" fill="#00A0E9"/>
<path d="M106.884 49.1251C100.736 45.9558 107.645 41.075 109.8 44.4979C112.716 45.7022 122.541 45.829 129.26 44.1175C131.352 43.4203 133.887 42.9132 135.218 45.2585C136.042 47.0333 134.141 48.3011 132.81 48.6814C123.048 51.5338 110.561 51.0901 106.884 49.1251ZM124.696 30.1724C122.351 28.5243 123.682 26.4959 125.267 24.8478C127.612 22.3123 128.436 21.0446 126.344 20.2206C122.224 18.5725 114.237 19.2064 111.385 21.4249C109.23 24.2773 101.813 19.967 107.772 16.7343C110.434 15.3398 114.934 14.5791 119.308 14.5791C122.541 14.5791 125.647 14.9594 128.182 15.7201C131.986 16.7977 135.282 20.6009 132.683 24.9112C131.605 26.6861 130.528 28.6511 129.197 30.0456C127.992 31.2499 126.217 31.2499 124.696 30.1724Z" fill="#00A0E9"/>
<path d="M43.4975 49.1251C37.3489 45.9558 44.2582 41.075 46.4133 44.4979C49.3291 45.7022 59.1541 45.829 65.8732 44.1175C67.965 43.4203 70.5004 42.9132 71.8316 45.2585C72.6556 47.0333 70.754 48.3011 69.4229 48.6814C59.6612 51.5338 47.174 51.0901 43.4975 49.1251ZM61.3093 30.1724C58.964 28.5243 60.2951 26.4959 61.8798 24.8478C64.2251 22.3123 65.0492 21.0446 62.9574 20.2206C58.8372 18.5725 50.8504 19.2064 47.998 21.4249C45.8428 24.2773 38.4265 19.967 44.3849 16.7343C47.0472 15.3398 51.5477 14.5791 55.9214 14.5791C59.1541 14.5791 62.2601 14.9594 64.7956 15.7201C68.5988 16.7977 71.895 20.6009 69.2961 24.9112C68.2185 26.6861 67.1409 28.6511 65.8098 30.0456C64.6054 31.2499 62.8306 31.2499 61.3093 30.1724Z" fill="#00A0E9"/>
<path d="M3.50038 44.8776C0.331023 44.6874 0.0140859 43.1662 0.0140859 40.5673C0.0140859 32.6439 -0.112687 8.11303 0.394407 3.92948C0.647957 1.96448 2.16925 0.760119 5.46539 0.569956C8.00087 0.506569 12.3746 0.316406 16.1144 0.316406C17.8259 0.316406 19.474 0.316406 20.6783 0.443183C22.4532 0.569956 23.7843 2.72512 22.263 4.43657C21.439 5.32399 19.9811 5.26061 19.0302 5.13384C15.9243 4.8169 9.8391 5.13384 5.65555 5.83109C4.83152 17.3042 5.08506 31.2494 5.52877 41.3913C5.97248 43.1028 5.46539 44.941 3.50038 44.8776Z" fill="#00A0E9"/>
</svg>
