<svg preserveAspectRatio="none" width="409.495" height="51.3808" overflow="visible" style="display: block;" viewBox="0 0 409.495 51.3808" fill="none" xmlns="http://www.w3.org/2000/svg">
<g id="&#228;&#184;&#150;&#231;&#149;&#140;&#227;&#129;&#184;&#232;&#183;&#179;&#227;&#129;&#185;">
<path id="Vector" d="M394.722 51.251C392.725 51.1985 390.833 50.9357 390.57 49.3061C390.307 47.7818 391.779 46.9933 392.725 47.0458C395.616 47.2035 401.03 47.2561 404.289 46.8882C405.025 43.2612 404.867 26.0198 404.867 16.6633C404.867 15.4543 405.34 14.2979 407.128 14.2979C407.285 14.2979 407.443 14.2979 407.601 14.2979C408.652 14.403 409.546 15.244 409.493 16.5056C409.178 24.0749 409.283 44.6804 409.125 46.783C409.02 48.4125 408.442 49.6215 407.338 50.3574C406.024 51.1985 400.031 51.4087 394.722 51.251Z" fill="#00A0E9"/>
<path id="Vector_2" d="M357.506 37.1635C356.245 37.0058 355.667 35.9545 355.561 34.9032C355.404 33.4839 355.667 31.6967 356.14 29.3838C358.137 19.9747 361.344 11.5117 364.76 3.88981C365.076 3.1539 365.917 1.57695 366.547 0.893606C367.126 0.262825 367.756 0 368.387 0C370.963 0 373.486 4.2052 369.964 5.57189C363.026 17.6618 360.45 31.0133 360.503 33.6942C360.555 36.0596 360.082 37.4788 357.506 37.1635ZM361.449 51.1983C358.558 52.2496 357.191 48.5175 356.297 46.1521C355.719 44.5751 355.456 41.9994 357.822 41.2635C358.82 40.9481 360.187 41.211 360.87 42.42C361.238 43.1559 360.976 44.1546 361.133 44.7328C361.396 45.8892 361.922 46.8354 362.658 47.729C363.394 48.9906 362.868 50.6727 361.449 51.1983Z" fill="#00A0E9"/>
<path id="Vector_3" d="M294.165 32.2751C295.006 26.966 296.741 19.7121 298.844 13.9825C296.794 14.2453 295.059 14.2979 294.218 14.1402C291.537 13.7722 292.273 9.19908 295.322 10.1453C297.214 10.1978 298.896 9.98755 300.526 9.77729C300.946 8.98882 301.314 8.25291 301.735 7.6747C302.628 6.15031 303.627 5.5721 304.521 5.51953H304.678C306.203 5.51953 307.57 7.04392 307.412 8.14778C310.408 6.62339 312.721 10.0401 310.513 11.2491C309.041 11.985 306.676 12.7209 304.153 13.1415C302.26 17.7672 300.631 23.3391 299.422 28.4904C297.792 35.5867 297.477 41.4214 298.686 43.2086C299.58 44.1022 300 44.8907 299.369 46.0997C298.896 47.0459 297.845 47.2561 296.636 46.7305C294.849 45.942 294.271 44.733 293.85 42.6304C293.377 40.1073 293.692 35.4816 294.165 32.2751ZM311.302 27.7545C309.672 26.7558 309.935 24.7583 311.564 23.7596C314.771 21.8672 319.397 21.1839 322.813 21.7095C324.022 21.8672 325.704 22.6557 326.493 23.6019C327.492 24.8634 327.176 26.7032 325.231 27.0712C324.075 27.334 323.339 26.3878 322.235 26.125C320.027 25.7045 315.717 26.2827 314.823 27.4917C314.245 28.4904 312.353 28.3853 311.302 27.7545ZM314.088 43.2612C311.459 42.683 307.78 40.6855 310.618 38.4778C311.827 37.5316 313.194 38.5304 314.245 38.8457C316.506 39.424 321.867 39.7919 325.442 38.5303C327.124 38.0573 329.226 39.2663 328.911 40.9483C328.806 41.8419 328.28 42.5779 327.492 42.7355C323.392 43.5766 318.03 44.1022 314.088 43.2612Z" fill="#00A0E9"/>
<path id="Vector_4" d="M256.687 37.0058C255.741 37.111 254.847 36.9533 254.058 36.743C252.324 38.3725 250.274 39.7918 247.961 40.8956C242.862 43.5239 238.447 39.4764 238.867 34.4301C239.183 30.5403 241.18 25.9146 245.07 22.3402C244.176 18.9235 243.598 15.4016 244.018 11.9849C244.439 8.46304 251.535 11.0913 248.907 13.6144C248.644 14.6131 248.802 16.7157 249.222 19.1863C252.587 17.1888 256.844 15.8221 261.943 15.6119C262.994 13.4567 263.625 11.3015 264.624 9.35664C264.939 8.62073 265.623 8.35791 266.306 8.35791C268.146 8.35791 270.511 10.5131 268.671 12.09C268.251 13.4041 267.62 14.7708 266.832 16.3478C269.933 17.5042 272.561 19.5543 274.191 22.0774C277.134 26.7031 276.661 33.5891 272.824 39.3187C271.3 41.6316 268.566 44.6803 266.779 46.1521C265.412 47.1509 264.309 47.4137 262.994 46.3624C261.996 45.4162 261.943 44.2072 262.837 43.3662C264.519 41.7892 265.833 40.5277 267.2 39.0559C268.987 37.111 271.878 32.8532 271.72 28.9634C271.51 24.2325 269.197 20.9735 265.518 19.6068C263.362 24.3902 260.892 29.1211 257.633 33.0109C259.893 33.6417 260.366 36.7956 256.687 37.0058ZM243.756 37.8469C245.806 37.6366 248.171 36.1122 250.379 34.2199C248.854 32.5378 247.33 29.3313 246.594 27.1236C246.121 27.7018 245.543 28.3852 245.07 29.1211C243.388 31.6968 242.757 35.2712 243.756 37.8469ZM260.629 19.5017C257.107 19.9748 253.323 21.6043 250.169 23.8646C251.01 26.8082 252.061 29.7519 253.165 31.3288C256.161 27.9647 258.842 23.6018 260.629 19.5017Z" fill="#00A0E9"/>
<path id="Vector_5" d="M190.507 26.5456C189.088 25.5994 187.564 25.0738 185.724 25.3892C184.83 27.1764 181.571 25.8097 181.519 24.0225C181.519 22.3929 182.991 21.657 184.935 21.6045C187.406 21.5519 190.192 22.2352 191.401 22.8135C194.397 24.2853 192.61 27.9648 190.507 26.5456ZM194.134 19.1865C192.4 19.2916 191.979 18.1877 191.821 17.2941C191.559 15.8223 190.77 13.7723 186.407 13.9825C185.934 15.2967 183.358 14.9287 182.623 13.8249C182.202 13.2466 182.149 12.4582 182.57 11.6697C183.201 10.4607 184.725 10.1453 185.934 10.0927C188.93 10.0402 193.819 11.6171 195.448 15.0338C196.079 16.348 196.027 19.0288 194.134 19.1865ZM182.675 43.051C181.361 42.9459 180.099 41.7369 180.467 40.4227C180.678 39.6343 181.571 38.9509 182.412 38.6355C185.251 36.5329 190.612 31.9598 192.032 30.6982C192.925 29.8046 193.503 29.3315 194.502 29.3315C195.554 29.3315 197.551 31.2239 196.079 32.4854C193.819 34.4829 188.089 39.7394 185.724 41.5792C184.725 42.3151 183.832 42.9984 182.675 43.051ZM198.76 30.961C197.393 29.9623 198.339 27.5969 200.652 26.9661C202.597 26.3879 204.858 25.9674 207.328 25.652C208.485 22.7083 209.378 19.8173 209.956 17.0839C210.324 15.4544 210.64 13.7723 210.903 12.1428C208.432 12.3005 205.751 12.9312 203.596 14.4031C203.754 18.398 194.765 13.9825 202.177 10.303C204.384 9.19913 207.854 8.46322 211.428 8.30552C211.638 6.67601 211.744 5.0465 211.796 3.46955C211.796 2.47081 212.585 2.05029 213.426 2.05029C214.582 2.05029 215.949 2.83877 216.001 3.94263C216.001 5.41445 215.949 6.93884 215.844 8.41066C219.155 8.83118 222.151 9.82991 223.676 11.7748C227.04 16.0851 224.569 21.2891 221.941 24.6532H226.357C227.566 24.6532 228.617 25.7045 228.827 27.1764C229.143 28.8059 226.83 28.8059 225.568 28.7533C222.204 28.5431 217.789 28.6482 213.636 28.9636C214.582 33.0111 216.632 36.9009 219.313 39.9497C221.31 42.1574 224.412 44.3651 226.462 45.469C228.88 46.8882 226.935 50.0421 224.517 48.728C220.259 46.31 216.159 42.9984 213.583 39.2137C211.428 36.1124 210.272 33.4842 209.694 31.0136C208.695 33.1688 207.591 35.2714 206.329 37.4265C204.384 41.001 202.702 43.9446 199.969 47.6767C199.286 48.6754 198.182 48.8331 196.868 48.0972C195.816 47.4664 195.448 46.2575 196.184 45.2587C199.811 40.4227 203.018 35.2188 205.436 30.0149C204.227 30.2777 203.228 30.5405 202.545 30.8559C201.704 31.9072 200.074 31.9072 198.76 30.961ZM220.259 17.9775C221.626 13.93 220.101 12.353 215.371 12.0902C214.74 15.9275 213.741 19.7121 212.637 23.3917C212.479 23.9699 212.269 24.5481 212.112 25.1263L214.477 24.9686C217.21 22.7083 219.471 20.1852 220.259 17.9775Z" fill="#00A0E9"/>
<path id="Vector_6" d="M139.151 44.6278C135.104 43.3662 134.21 39.2661 133.895 35.0084C133.422 29.016 134.788 17.1889 137.942 10.4605C138.626 9.04127 139.73 8.51562 140.676 8.51562C143.146 8.51562 145.512 11.8272 142.095 13.1413C138.994 20.3953 136.891 33.7468 139.309 39.0559C139.835 40.1072 141.201 40.0546 141.885 40.9482C142.989 42.4201 141.569 45.3637 139.151 44.6278ZM153.239 23.1287C151.557 22.7082 150.137 20.9735 151.609 19.1338C154.237 15.9273 162.595 15.2439 166.695 16.5581C168.22 16.9786 169.586 18.1876 169.218 19.6594C168.693 21.5517 166.59 20.8684 164.856 20.553C162.122 20.1325 158.811 20.3428 156.655 21.4992C156.393 22.7607 154.816 23.3915 153.239 23.1287ZM154.29 39.8969C151.767 39.7392 149.612 36.4802 152.661 35.4815C153.449 35.2712 154.237 35.4289 155.236 35.534C158.916 35.6917 163.752 35.4289 167.747 34.6404C169.429 34.1673 172.162 35.7969 171.163 37.6892C170.848 38.3725 169.692 38.8982 168.01 39.161C163.226 39.8969 157.286 40.2123 154.29 39.8969Z" fill="#00A0E9"/>
<path id="Vector_7" d="M88.6363 40.7378C83.5375 38.1095 89.2671 34.062 91.0543 36.9005C93.4723 37.8993 101.62 38.0044 107.192 36.5851C108.926 36.0069 111.029 35.5864 112.133 37.5313C112.816 39.0031 111.239 40.0544 110.135 40.3698C102.04 42.7352 91.6851 42.3673 88.6363 40.7378ZM103.407 25.0208C101.462 23.6541 102.566 21.9721 103.88 20.6054C105.825 18.5028 106.508 17.4515 104.774 16.7681C101.357 15.4014 94.7339 15.9271 92.3685 17.7669C90.5812 20.1323 84.4311 16.5579 89.3722 13.8771C91.58 12.7206 95.3121 12.0898 98.9391 12.0898C101.62 12.0898 104.196 12.4052 106.298 13.036C109.452 13.9296 112.185 17.0835 110.03 20.6579C109.137 22.1298 108.243 23.7593 107.139 24.9157C106.14 25.9144 104.669 25.9144 103.407 25.0208Z" fill="#00A0E9"/>
<path id="Vector_8" d="M36.0714 40.7378C30.9726 38.1095 36.7021 34.062 38.4894 36.9005C40.9073 37.8993 49.0549 38.0044 54.6268 36.5851C56.3615 36.0069 58.4641 35.5864 59.5679 37.5313C60.2513 39.0031 58.6743 40.0544 57.5705 40.3698C49.4754 42.7352 39.1201 42.3673 36.0714 40.7378ZM50.8421 25.0208C48.8972 23.6541 50.0011 21.9721 51.3152 20.6054C53.2601 18.5028 53.9435 17.4515 52.2088 16.7681C48.7921 15.4014 42.1689 15.9271 39.8035 17.7669C38.0163 20.1323 31.8662 16.5579 36.8073 13.8771C39.015 12.7206 42.7471 12.0898 46.3741 12.0898C49.0549 12.0898 51.6306 12.4052 53.7332 13.036C56.8871 13.9296 59.6205 17.0835 57.4653 20.6579C56.5717 22.1298 55.6781 23.7593 54.5742 24.9157C53.5755 25.9144 52.1037 25.9144 50.8421 25.0208Z" fill="#00A0E9"/>
<path id="Vector_9" d="M2.90285 37.2159C0.274597 37.0582 0.0117727 35.7966 0.0117727 33.6415C0.0117727 27.0708 -0.0933572 6.72819 0.32716 3.2589C0.537421 1.62939 1.79899 0.630652 4.53236 0.472956C6.63496 0.420391 10.2619 0.262695 13.3633 0.262695C14.7825 0.262695 16.1492 0.262695 17.148 0.367827C18.6198 0.472956 19.7236 2.26016 18.4621 3.67942C17.7787 4.41533 16.5697 4.36277 15.7813 4.25764C13.2056 3.99481 8.15935 4.25764 4.69006 4.83585C4.00671 14.3501 4.21697 25.9144 4.58493 34.3248C4.95288 35.7441 4.53236 37.2685 2.90285 37.2159Z" fill="#00A0E9"/>
</g>
</svg>
