<svg preserveAspectRatio="xMidYMid meet" width="100%" height="100%" overflow="visible" style="display: block;" viewBox="0 0 98 98" fill="none" xmlns="http://www.w3.org/2000/svg">
<path id="Vector" d="M67.0075 72.6425L72.52 67.13L53.0425 47.53V22.9075H45.6925V50.47L67.0075 72.6425ZM49 98C42.3033 98 35.9742 96.7138 30.0125 94.1413C24.0508 91.5688 18.8446 88.0571 14.3938 83.6063C9.94292 79.1554 6.43125 73.9492 3.85875 67.9875C1.28625 62.0258 0 55.6967 0 49C0 42.3033 1.28625 35.9742 3.85875 30.0125C6.43125 24.0508 9.94292 18.8446 14.3938 14.3938C18.8446 9.94292 24.0508 6.43125 30.0125 3.85875C35.9742 1.28625 42.3033 0 49 0C55.6967 0 62.0258 1.28625 67.9875 3.85875C73.9492 6.43125 79.1554 9.94292 83.6063 14.3938C88.0571 18.8446 91.5688 24.0508 94.1413 30.0125C96.7138 35.9742 98 42.3033 98 49C98 55.6967 96.7138 62.0258 94.1413 67.9875C91.5688 73.9492 88.0571 79.1554 83.6063 83.6063C79.1554 88.0571 73.9492 91.5688 67.9875 94.1413C62.0258 96.7138 55.6967 98 49 98ZM49 90.65C60.4333 90.65 70.2333 86.5667 78.4 78.4C86.5667 70.2333 90.65 60.4333 90.65 49C90.65 37.5667 86.5667 27.7667 78.4 19.6C70.2333 11.4333 60.4333 7.35 49 7.35C37.5667 7.35 27.7667 11.4333 19.6 19.6C11.4333 27.7667 7.35 37.5667 7.35 49C7.35 60.4333 11.4333 70.2333 19.6 78.4C27.7667 86.5667 37.5667 90.65 49 90.65Z" fill="var(--fill-0, #C2DCFE)"/>
</svg>
