<svg preserveAspectRatio="xMidYMid meet" width="100%" height="100%" overflow="visible" style="display: block;" viewBox="0 0 83 92" fill="none" xmlns="http://www.w3.org/2000/svg">
<path id="Vector" d="M36.0819 74.98L20.1736 59.225L25.0153 54.395L36.0819 65.205L57.2931 44.045L62.1347 48.99L36.0819 74.98ZM6.91667 92C5.07222 92 3.45833 91.31 2.075 89.93C0.691667 88.55 0 86.94 0 85.1V13.8C0 11.96 0.691667 10.35 2.075 8.97C3.45833 7.59 5.07222 6.9 6.91667 6.9H14.4097V0H21.9028V6.9H61.0972V0H68.5903V6.9H76.0833C77.9278 6.9 79.5417 7.59 80.925 8.97C82.3083 10.35 83 11.96 83 13.8V85.1C83 86.94 82.3083 88.55 80.925 89.93C79.5417 91.31 77.9278 92 76.0833 92H6.91667ZM6.91667 85.1H76.0833V35.65H6.91667V85.1ZM6.91667 28.75H76.0833V13.8H6.91667V28.75Z" fill="var(--fill-0, #C2DCFE)"/>
</svg>
