<svg preserveAspectRatio="xMidYMid meet" width="100%" height="100%" overflow="visible" style="display: block;" viewBox="0 0 164 164" fill="none" xmlns="http://www.w3.org/2000/svg">
<g id="history_24dp_E3E3E3_FILL0_wght400_GRAD0_opsz24 1">
<path id="Vector" d="M82 143.5C66.2833 143.5 52.5882 138.29 40.9146 127.869C29.241 117.448 22.55 104.436 20.8417 88.8333H34.85C36.4444 100.678 41.7118 110.472 50.6521 118.217C59.5924 125.961 70.0417 129.833 82 129.833C95.325 129.833 106.628 125.192 115.91 115.91C125.192 106.628 129.833 95.325 129.833 82C129.833 68.675 125.192 57.3715 115.91 48.0896C106.628 38.8076 95.325 34.1667 82 34.1667C74.1417 34.1667 66.7958 35.9889 59.9625 39.6333C53.1292 43.2778 47.3778 48.2889 42.7083 54.6667H61.5V68.3333H20.5V27.3333H34.1667V43.3917C39.975 36.1028 47.0646 30.4653 55.4354 26.4792C63.8062 22.4931 72.6611 20.5 82 20.5C90.5417 20.5 98.5424 22.1229 106.002 25.3687C113.462 28.6146 119.953 32.9993 125.477 38.5229C131.001 44.0465 135.385 50.5382 138.631 57.9979C141.877 65.4576 143.5 73.4583 143.5 82C143.5 90.5417 141.877 98.5424 138.631 106.002C135.385 113.462 131.001 119.953 125.477 125.477C119.953 131.001 113.462 135.385 106.002 138.631C98.5424 141.877 90.5417 143.5 82 143.5ZM101.133 110.7L75.1667 84.7333V47.8333H88.8333V79.2667L110.7 101.133L101.133 110.7Z" fill="var(--fill-0, #CEE1FA)"/>
</g>
</svg>
