<svg preserveAspectRatio="xMidYMid meet" width="100%" height="100%" overflow="visible" style="display: block;" viewBox="0 0 122 122" fill="none" xmlns="http://www.w3.org/2000/svg">
<path id="Vector" d="M8.78751 111.309C6.44418 111.309 4.39376 110.43 2.63625 108.672C0.878751 106.915 0 104.864 0 102.521V32.2209C0 29.8776 0.878751 27.8271 2.63625 26.0696C4.39376 24.3121 6.44418 23.4334 8.78751 23.4334H35.1501V8.78751C35.1501 6.54182 36.0288 4.51581 37.7863 2.70948C39.5438 0.903161 41.5942 0 43.9376 0H73.2293C75.5726 0 77.623 0.903161 79.3806 2.70948C81.1381 4.51581 82.0168 6.54182 82.0168 8.78751V23.4334H108.379C110.723 23.4334 112.773 24.3121 114.531 26.0696C116.288 27.8271 117.167 29.8776 117.167 32.2209V65.1741C115.8 64.1 114.409 63.1236 112.993 62.2449C111.577 61.3661 110.039 60.5362 108.379 59.7551V32.2209H8.78751V102.521H57.7047C58.0952 104.083 58.5834 105.597 59.1693 107.061C59.7551 108.526 60.4386 109.942 61.2197 111.309H8.78751ZM43.9376 23.4334H73.2293V8.78751H43.9376V23.4334ZM73.8151 113.652C68.2497 108.086 65.467 101.447 65.467 93.7335C65.467 86.02 68.2497 79.3806 73.8151 73.8151C79.3806 68.2497 86.02 65.467 93.7335 65.467C101.447 65.467 108.086 68.2497 113.652 73.8151C119.217 79.3806 122 86.02 122 93.7335C122 101.447 119.217 108.086 113.652 113.652C108.086 119.217 101.447 122 93.7335 122C86.02 122 79.3806 119.217 73.8151 113.652ZM96.2233 93.4406V75.2797H90.072V95.1659L104.571 108.526L108.526 104.571L96.2233 93.4406Z" fill="var(--fill-0, #C2DCFE)"/>
</svg>
